<?xml version="1.0"?>
<svg xmlns="http://www.w3.org/2000/svg" height="512px" viewBox="0 -21 512 512" width="512px"><g><path d="m464.898438 0h-417.796876c-25.972656 0-47.101562 21.128906-47.101562 47.101562v315.796876c0 25.972656 21.128906 47.101562 47.101562 47.101562h193.898438v30h-96.671875c-8.285156 0-15 6.714844-15 15s6.714844 15 15 15h223.34375c8.285156 0 15-6.714844 15-15s-6.714844-15-15-15h-96.671875v-30h193.898438c25.972656 0 47.101562-21.128906 47.101562-47.101562v-315.796876c0-25.972656-21.128906-47.101562-47.101562-47.101562zm-417.796876 30h417.796876c9.429687 0 17.101562 7.671875 17.101562 17.101562v272.796876h-452v-272.796876c0-9.429687 7.671875-17.101562 17.101562-17.101562zm417.796876 350h-417.796876c-9.429687 0-17.101562-7.671875-17.101562-17.101562v-13h452v13c0 9.429687-7.671875 17.101562-17.101562 17.101562zm0 0" data-original="#000000" class="active-path" data-old_color="#000000" fill="#286150"/><path d="m256 261.363281c27.929688 0 50.652344-22.722656 50.652344-50.652343v-71.304688c0-27.929688-22.722656-50.652344-50.652344-50.652344s-50.652344 22.722656-50.652344 50.652344v71.304688c0 27.929687 22.722656 50.652343 50.652344 50.652343zm-20.652344-121.957031c0-11.390625 9.265625-20.652344 20.652344-20.652344s20.652344 9.265625 20.652344 20.652344v71.304688c0 11.386718-9.265625 20.652343-20.652344 20.652343s-20.652344-9.265625-20.652344-20.652343zm0 0" data-original="#000000" class="active-path" data-old_color="#000000" fill="#286150"/><path d="m120.984375 190.058594h30.667969v56.304687c0 8.285157 6.714844 15 15 15s15-6.714843 15-15v-142.609375c0-8.285156-6.714844-15-15-15s-15 6.714844-15 15v56.304688h-30.667969c-5.867187 0-10.636719-4.773438-10.636719-10.636719v-45.667969c0-8.285156-6.714844-15-15-15s-15 6.714844-15 15v45.667969c0 22.40625 18.230469 40.636719 40.636719 40.636719zm0 0" data-original="#000000" class="active-path" data-old_color="#000000" fill="#286150"/><path d="m362.984375 190.058594h30.667969v56.304687c0 8.285157 6.714844 15 15 15s15-6.714843 15-15v-142.609375c0-8.285156-6.714844-15-15-15s-15 6.714844-15 15v56.304688h-30.667969c-5.867187 0-10.636719-4.773438-10.636719-10.636719v-45.667969c0-8.285156-6.714844-15-15-15s-15 6.714844-15 15v45.667969c0 22.40625 18.230469 40.636719 40.636719 40.636719zm0 0" data-original="#000000" class="active-path" data-old_color="#000000" fill="#286150"/></g> </svg>
