<?xml version="1.0"?>
<svg xmlns="http://www.w3.org/2000/svg" xmlns:xlink="http://www.w3.org/1999/xlink" version="1.1" id="Capa_1" x="0px" y="0px" width="512px" height="512px" viewBox="0 0 302.223 302.223" style="enable-background:new 0 0 302.223 302.223;" xml:space="preserve"><g><g>
	<g>
		<path d="M262.485,78.129c0.03,0,0.057,0,0.087,0c4.746,0,8.596-3.848,8.596-8.595c0-1.467-0.366-2.847-1.014-4.055l-11.785-32.026    c-1.245-3.38-4.464-5.625-8.067-5.625h-17.464V8.596c0-4.747-3.85-8.596-8.597-8.596H73.815c-4.748,0-8.595,3.849-8.595,8.596    v19.232H51.835c-3.604,0-6.823,2.245-8.067,5.625L31.583,66.565c-0.969,2.637-0.59,5.583,1.018,7.887    c1.608,2.306,4.24,3.678,7.05,3.678h14.991l3.634,33.418H45.88c-2.445,0-4.775,1.042-6.405,2.862    c-1.63,1.822-2.406,4.25-2.139,6.68l12.185,109.958c0.483,4.356,4.161,7.649,8.543,7.649h14.039l6.074,55.857    c0.474,4.359,4.158,7.668,8.546,7.668h128.692c4.39,0,8.072-3.309,8.546-7.668l6.074-55.857h14.038    c4.383,0,8.062-3.293,8.544-7.649l12.186-109.958c0.269-2.43-0.51-4.858-2.14-6.68c-1.631-1.821-3.961-2.862-6.403-2.862h-12.397    l3.634-33.418L262.485,78.129L262.485,78.129z M82.411,17.191h133.235v10.636H82.411V17.191z M57.83,45.018h15.985h150.426h20.064    l5.856,15.919h-10.38H62.353h-10.38L57.83,45.018z M207.703,285.029H94.434l-5.038-46.332h123.345L207.703,285.029z     M236.377,221.506H65.759L55.48,128.739h191.176L236.377,221.506z M226.567,111.547H75.57l-3.634-33.418h158.265L226.567,111.547z    " data-original="#000000" class="active-path" data-old_color="#000000" fill="#286150"/>
		<path d="M151.069,212.167c20.423,0,37.042-16.619,37.042-37.045c0-20.427-16.619-37.045-37.042-37.045    c-20.425,0-37.045,16.619-37.045,37.045C114.024,195.548,130.644,212.167,151.069,212.167z M151.069,155.27    c10.945,0,19.851,8.906,19.851,19.853s-8.905,19.853-19.851,19.853c-10.947,0-19.853-8.906-19.853-19.853    S140.122,155.27,151.069,155.27z" data-original="#000000" class="active-path" data-old_color="#000000" fill="#286150"/>
	</g>
</g></g> </svg>
