<?xml version="1.0"?>
<svg xmlns="http://www.w3.org/2000/svg" xmlns:xlink="http://www.w3.org/1999/xlink" version="1.1" id="Capa_1" x="0px" y="0px" width="512px" height="512px" viewBox="0 0 436.946 436.945" style="enable-background:new 0 0 436.946 436.945;" xml:space="preserve"><g><g>
	<g>
		<path d="M343.911,198.795h-31.006V94.432C312.905,42.361,270.546,0,218.473,0s-94.432,42.36-94.432,94.432v104.363H93.033    c-6.227,0-11.275,5.045-11.275,11.275v215.6c0,6.221,5.049,11.275,11.275,11.275H343.91c6.23,0,11.277-5.055,11.277-11.275v-215.6    C355.188,203.84,350.141,198.795,343.911,198.795z M146.592,94.432c0-39.629,32.245-71.881,71.881-71.881    c39.633,0,71.881,32.252,71.881,71.881v104.363H146.592V94.432z M332.637,414.395H104.309V221.348h31.006h166.314h31.008V414.395z    " data-original="#000000" class="active-path" data-old_color="#000000" fill="#286150"/>
		<path d="M218.473,256.737c-19.527,0-35.414,15.89-35.414,35.411c0,9.229,3.674,18.059,10.045,24.621v50.961    c0,6.219,5.048,11.275,11.274,11.275h28.19c6.227,0,11.273-5.057,11.273-11.275V316.77c6.369-6.562,10.042-15.394,10.042-24.621    C253.884,272.626,238.001,256.737,218.473,256.737z M225.961,302.532c-2.937,2.114-4.67,5.519-4.67,9.142v44.781h-5.637v-44.781    c0-3.623-1.734-7.027-4.669-9.142c-3.413-2.468-5.372-6.254-5.372-10.384c0-7.092,5.768-12.86,12.859-12.86    c7.09,0,12.86,5.771,12.86,12.86C231.333,296.278,229.374,300.064,225.961,302.532z" data-original="#000000" class="active-path" data-old_color="#000000" fill="#286150"/>
	</g>
</g></g> </svg>
