<?xml version="1.0"?>
<svg xmlns="http://www.w3.org/2000/svg" xmlns:xlink="http://www.w3.org/1999/xlink" version="1.1" id="Capa_1" x="0px" y="0px" width="512px" height="512px" viewBox="0 0 353.072 353.071" style="enable-background:new 0 0 353.072 353.071;" xml:space="preserve"><g><g>
	<path d="M300.889,165.258h-0.742V68.09c0-6.127-4.969-11.094-11.095-11.094h-53.669V11.101c0-3.473-1.629-6.744-4.396-8.84   c-2.774-2.103-6.367-2.796-9.703-1.838L24.277,55.842c-2.318,0.649-4.24,2.015-5.639,3.765c-2.437,2.036-4.025,5.06-4.025,8.482   v273.889c0,6.127,4.975,11.094,11.094,11.094h263.347c6.126,0,11.095-4.967,11.095-11.094v-97.169h0.743   c20.715,0,37.567-16.853,37.567-37.567v-4.415C338.458,182.111,321.605,165.258,300.889,165.258z M213.197,56.996H102.104   l111.092-31.247V56.996z M277.958,330.883H36.803V79.184h241.156v86.073h-52.086c-20.721,0-37.573,16.854-37.573,37.568v4.415   c0,20.716,16.854,37.567,37.573,37.567h52.086V330.883z M316.271,207.241c0,8.478-6.904,15.38-15.382,15.38h-75.018   c-8.484,0-15.385-6.902-15.385-15.38v-4.415c0-8.479,6.899-15.38,15.385-15.38h75.018c8.478,0,15.382,6.901,15.382,15.38V207.241z" data-original="#000000" class="active-path" data-old_color="#000000" fill="#286150"/>
</g></g> </svg>
