<?xml version="1.0"?>
<svg xmlns="http://www.w3.org/2000/svg" xmlns:xlink="http://www.w3.org/1999/xlink" version="1.1" id="Capa_1" x="0px" y="0px" width="512px" height="512px" viewBox="0 0 499.312 499.312" style="enable-background:new 0 0 499.312 499.312;" xml:space="preserve"><g><g>
	<g>
		<path d="M441.053,32.884H58.255C26.133,32.884,0,59.019,0,91.144v223.615c0,32.125,26.133,58.26,58.255,58.26H185.81v69.721    h-29.062c-6.531,0-11.844,5.312-11.844,11.844s5.313,11.846,11.844,11.846h185.815c6.529,0,11.846-5.314,11.846-11.846    c0-6.529-5.314-11.844-11.846-11.844h-29.057v-69.721h127.547c32.125,0,58.26-26.135,58.26-58.26V91.143    C499.312,59.018,473.178,32.884,441.053,32.884z M289.818,374.382v68.355h-80.321v-68.355H289.818z M23.687,282.681h451.938    v32.077c0,19.062-15.51,34.571-34.572,34.571H58.255c-19.061,0-34.567-15.51-34.567-34.571v-32.077H23.687z M23.687,258.993    V103.138h451.938v155.854H23.687V258.993z M25.747,79.452c4.901-13.568,17.989-22.881,32.508-22.881h382.798    c14.527,0,27.615,9.312,32.514,22.881H25.747z" data-original="#000000" class="active-path" data-old_color="#000000" fill="#286150"/>
		<path d="M249.656,342.319c14.151,0,25.663-11.512,25.663-25.662s-11.512-25.664-25.663-25.664s-25.663,11.514-25.663,25.664    S235.505,342.319,249.656,342.319z M249.656,308.682c4.398,0,7.975,3.578,7.975,7.976c0,4.396-3.576,7.975-7.975,7.975    c-4.397,0-7.975-3.577-7.975-7.975S245.259,308.682,249.656,308.682z" data-original="#000000" class="active-path" data-old_color="#000000" fill="#286150"/>
	</g>
</g></g> </svg>
