<?xml version="1.0"?>
<svg xmlns="http://www.w3.org/2000/svg" id="Capa_1" enable-background="new 0 0 512 512" height="512px" viewBox="0 0 512 512" width="512px"><g><g><path d="m476.643 103.963-96.78-103.963h-247.726l-96.78 103.963 86.973 179.559c-12.532 22.214-19.696 47.84-19.696 75.112 0 84.566 68.8 153.366 153.366 153.366s153.366-68.8 153.366-153.366c0-27.272-7.164-52.899-19.696-75.112zm-220.643 378.037c-68.024 0-123.366-55.342-123.366-123.366s55.342-123.366 123.366-123.366 123.366 55.342 123.366 123.366-55.342 123.366-123.366 123.366zm0-278.735-28.822-60.265h57.645zm30.809 5.113 83.507-174.605 70.374 75.598-70.955 146.489c-21.511-23.783-50.353-40.813-82.926-47.482zm12.361-95.378h-86.34l-39.696-83h165.731zm-73.979 95.378c-32.574 6.669-61.416 23.699-82.926 47.481l-70.955-146.489 70.374-75.598z" data-original="#000000" class="active-path" data-old_color="#000000" fill="#286150"/><path d="m256 268.967c-49.442 0-89.667 40.224-89.667 89.667 0 49.442 40.224 89.667 89.667 89.667s89.667-40.224 89.667-89.667c0-49.442-40.225-89.667-89.667-89.667zm0 149.334c-32.9 0-59.667-26.766-59.667-59.667s26.767-59.667 59.667-59.667 59.667 26.766 59.667 59.667-26.767 59.667-59.667 59.667z" data-original="#000000" class="active-path" data-old_color="#000000" fill="#286150"/></g></g> </svg>
