<?xml version="1.0"?>
<svg xmlns="http://www.w3.org/2000/svg" xmlns:xlink="http://www.w3.org/1999/xlink" version="1.1" id="Capa_1" x="0px" y="0px" width="512px" height="512px" viewBox="0 0 455.909 455.909" style="enable-background:new 0 0 455.909 455.909;" xml:space="preserve"><g><g>
	<path d="M404.5,11.95c-3.965-2.982-9.147-3.809-13.842-2.186L154.543,90.699h-84.95H14.976C6.705,90.699,0,97.404,0,105.674   v139.429c0,8.271,6.705,14.977,14.976,14.977h12.335v171.908c0,8.27,6.703,14.975,14.973,14.975h114.745   c8.271,0,14.976-6.705,14.976-14.975v-38.65c0-4.723-2.229-9.176-6.018-11.998l-52.477-39.164V260.08h41.033l236.115,80.926   c1.586,0.549,3.225,0.812,4.854,0.812c3.195,0,6.359-1.023,8.986-2.996c37.904-28.451,51.41-103.084,51.41-163.436   C455.91,115.033,442.404,40.402,404.5,11.95z M142.055,230.13H98.534H84.57V120.65h57.485V230.13z M29.948,120.65H54.62v109.48   H42.284H29.948V120.65z M89.577,361.683l52.479,39.162v16.166H57.259V260.08h12.335h13.968v89.605   C83.561,354.41,85.791,358.863,89.577,361.683z M392.084,309.837l-220.08-75.43V116.371l220.08-75.436   c20.488,21.796,33.877,74.041,33.877,134.451S412.572,288.041,392.084,309.837z" data-original="#000000" class="active-path" data-old_color="#000000" fill="#286150"/>
</g></g> </svg>
