<?xml version="1.0"?>
<svg xmlns="http://www.w3.org/2000/svg" xmlns:xlink="http://www.w3.org/1999/xlink" version="1.1" id="Layer_1" x="0px" y="0px" viewBox="0 0 512 512" style="enable-background:new 0 0 512 512;" xml:space="preserve" width="512px" height="512px"><g><g>
	<g>
		<path d="M458.667,84.501h-256c-29.419,0-53.333,23.936-53.333,53.333v64c0,5.888,4.779,10.667,10.667,10.667    s10.667-4.779,10.667-10.667v-64c0-17.643,14.357-32,32-32h256c17.643,0,32,14.357,32,32v128c0,17.643-14.357,32-32,32h-192    c-5.888,0-10.667,4.779-10.667,10.667s4.779,10.667,10.667,10.667h192c29.419,0,53.333-23.936,53.333-53.333v-128    C512,108.437,488.085,84.501,458.667,84.501z" data-original="#000000" class="active-path" data-old_color="#000000" fill="#286150"/>
	</g>
</g><g>
	<g>
		<path d="M405.333,233.835c0-6.037,2.539-11.627,7.147-15.765c2.219-2.027,3.52-4.907,3.52-7.936c0-3.029-1.301-5.909-3.52-7.915    c-7.915-7.125-18.027-11.051-28.48-11.051c-23.531,0-42.667,19.136-42.667,42.667c0,23.531,19.136,42.667,42.667,42.667    c10.453,0,20.565-3.925,28.48-11.029c2.219-2.027,3.52-4.907,3.52-7.936s-1.301-5.909-3.52-7.936    C407.872,245.461,405.333,239.872,405.333,233.835z M389.397,254.443c-12.992,3.584-26.731-7.019-26.731-20.608    c0-11.755,9.557-21.333,21.333-21.333c1.835,0,3.648,0.235,5.397,0.725c-3.499,6.272-5.397,13.355-5.397,20.608    C384,241.088,385.899,248.171,389.397,254.443z" data-original="#000000" class="active-path" data-old_color="#000000" fill="#286150"/>
	</g>
</g><g>
	<g>
		<path d="M426.667,191.168c-23.531,0-42.667,19.136-42.667,42.667c0,23.531,19.136,42.667,42.667,42.667    s42.667-19.136,42.667-42.667C469.333,210.304,450.197,191.168,426.667,191.168z M426.667,255.168    c-11.776,0-21.333-9.579-21.333-21.333c0-11.755,9.557-21.333,21.333-21.333S448,222.08,448,233.835    C448,245.589,438.443,255.168,426.667,255.168z" data-original="#000000" class="active-path" data-old_color="#000000" fill="#286150"/>
	</g>
</g><g>
	<g>
		<path d="M245.333,148.501H224c-5.888,0-10.667,4.779-10.667,10.667s4.779,10.667,10.667,10.667h21.333    c5.888,0,10.667-4.779,10.667-10.667S251.221,148.501,245.333,148.501z" data-original="#000000" class="active-path" data-old_color="#000000" fill="#286150"/>
	</g>
</g><g>
	<g>
		<path d="M309.333,148.501H288c-5.888,0-10.667,4.779-10.667,10.667s4.779,10.667,10.667,10.667h21.333    c5.888,0,10.667-4.779,10.667-10.667S315.221,148.501,309.333,148.501z" data-original="#000000" class="active-path" data-old_color="#000000" fill="#286150"/>
	</g>
</g><g>
	<g>
		<path d="M373.333,148.501H352c-5.888,0-10.667,4.779-10.667,10.667s4.779,10.667,10.667,10.667h21.333    c5.888,0,10.667-4.779,10.667-10.667S379.221,148.501,373.333,148.501z" data-original="#000000" class="active-path" data-old_color="#000000" fill="#286150"/>
	</g>
</g><g>
	<g>
		<path d="M437.333,148.501H416c-5.888,0-10.667,4.779-10.667,10.667s4.779,10.667,10.667,10.667h21.333    c5.888,0,10.667-4.779,10.667-10.667S443.221,148.501,437.333,148.501z" data-original="#000000" class="active-path" data-old_color="#000000" fill="#286150"/>
	</g>
</g><g>
	<g>
		<path d="M383.552,348.587c-1.28-4.587-5.461-7.744-10.24-7.744l-64.832,0.021l-47.957,3.776    c-19.563,2.923-36.544-12.501-36.544-31.68c0-7.403,2.325-14.485,6.677-20.459l33.557-46.101    c9.344-14.037,7.509-32.896-4.437-44.843c-13.397-13.419-36.821-13.419-50.24,0l-54.08,54.08    c-28.565,1.6-53.867,18.133-66.752,43.947c-0.32,0.661-0.576,1.344-0.768,2.048l-23.573,89.472    c-0.789,2.923-0.277,6.037,1.387,8.555c1.643,2.517,4.309,4.245,7.296,4.693l137.344,21.056    c4.864,1.387,11.755,2.091,20.523,2.091c16.555,0,50.453-3.051,63.531-14.485l84.48-52.437    C382.976,358.059,384.875,353.173,383.552,348.587z M282.368,395.456c-0.683,0.427-1.344,0.939-1.92,1.515    c-4.16,4.181-27.2,9.216-49.536,9.216c-9.472,0-13.611-0.981-15.957-1.557L88,385.088l20.267-76.907    c10.112-19.328,29.824-31.317,51.733-31.317c2.837,0,5.547-1.131,7.552-3.093l57.088-57.088c5.376-5.355,14.699-5.355,20.075,0    c4.779,4.757,5.525,12.309,2.027,17.557l-33.323,45.739c-7.019,9.643-10.752,21.077-10.752,33.045    c0,29.397,23.893,53.333,53.248,53.333c2.517,0,5.056-0.171,6.955-0.469l46.464-3.669h26.581L282.368,395.456z" data-original="#000000" class="active-path" data-old_color="#000000" fill="#286150"/>
	</g>
</g><g>
	<g>
		<path d="M103.339,279.787c-18.688-17.685-79.787-23.275-91.84-24.213c-3.157-0.171-5.888,0.789-8.085,2.795    C1.259,260.395,0,263.232,0,266.197v149.333c0,5.888,4.779,10.667,10.667,10.667c29.163,0,67.669-21.824,69.291-22.72    c2.325-1.323,4.075-3.477,4.885-6.016c0.683-2.176,16.939-53.568,21.781-108.992C106.923,285.227,105.685,282.027,103.339,279.787    z M65.728,386.923c-9.813,5.184-28.373,13.739-44.395,16.811V277.931c23.061,2.603,51.371,7.893,63.488,14.613    C80.427,334.763,69.419,374.464,65.728,386.923z" data-original="#000000" class="active-path" data-old_color="#000000" fill="#286150"/>
	</g>
</g></g> </svg>
